<?xml version="1.0" encoding="utf-8"?>
<!-- Generator: Adobe Illustrator 23.1.0, SVG Export Plug-In . SVG Version: 6.00 Build 0)  -->
<svg version="1.1" id="Layer_1" xmlns="http://www.w3.org/2000/svg" xmlns:xlink="http://www.w3.org/1999/xlink" x="0px" y="0px"
	 width="56.7px" height="56.7px" viewBox="0 0 56.7 56.7" style="enable-background:new 0 0 56.7 56.7;" xml:space="preserve">
<path d="M28.3,0C12.7,0,0,12.7,0,28.3C0,44,12.7,56.7,28.3,56.7S56.7,44,56.7,28.3C56.7,12.7,44,0,28.3,0z M42.6,22.6
	c0,0.3,0,0.6,0,0.9c0,9.4-7.2,20.3-20.3,20.3c-4,0-7.8-1.2-11-3.2c0.6,0.1,1.1,0.1,1.7,0.1c3.3,0,6.4-1.1,8.9-3.1
	c-3.1-0.1-5.8-2.1-6.7-5c0.4,0.1,0.9,0.1,1.3,0.1c0.7,0,1.3-0.1,1.9-0.2c-3.3-0.7-5.7-3.5-5.7-7c0,0,0-0.1,0-0.1
	c1,0.5,2.1,0.9,3.2,0.9c-1.9-1.3-3.2-3.5-3.2-5.9c0-1.3,0.4-2.5,1-3.6c3.5,4.3,8.8,7.2,14.7,7.5c-0.1-0.5-0.2-1.1-0.2-1.6
	c0-3.9,3.2-7.1,7.1-7.1c2.1,0,3.9,0.9,5.2,2.3c1.6-0.3,3.2-0.9,4.5-1.7c-0.5,1.7-1.7,3.1-3.1,4c1.4-0.2,2.8-0.6,4.1-1.1
	C45.2,20.4,44,21.6,42.6,22.6z"/>
</svg>
